<svg xmlns="http://www.w3.org/2000/svg" viewBox="0 0 768 498" width="384" height="249" role="img" aria-label="Wovn Rugs">
	<path d="M 432 115.441 C 432 179.818, 432.367 222.109, 432.928 222.456 C 433.438 222.771, 434.164 222.010, 434.539 220.765 C 435.482 217.641, 446.340 186.472, 469.418 120.642 L 489 64.785 489 54.892 L 489 45 478.059 45 C 471.449 45, 466.859 44.582, 466.465 43.943 C 466.105 43.361, 465.873 36.023, 465.948 27.635 C 466.023 19.247, 465.792 11.623, 465.435 10.692 C 464.862 9.198, 462.869 9, 448.393 9 L 432 9 432 115.441 M 8.465 12.057 C 8.106 12.638, 8.071 14.146, 8.388 15.408 C 8.914 17.505, 9.693 17.758, 17.454 18.355 C 29.942 19.315, 36.298 21.989, 43.285 29.225 C 48.958 35.099, 57.805 51.658, 76.022 90.500 C 78.085 94.900, 83.702 106.600, 88.503 116.500 C 96.831 133.675, 100.923 142.154, 116.736 175 C 128.974 200.419, 163.957 272.873, 172.746 291 C 177.412 300.625, 183.151 312.550, 185.499 317.500 C 187.847 322.450, 194.347 335.950, 199.944 347.500 C 205.541 359.050, 213.092 374.688, 216.725 382.250 L 223.329 396 229.070 396 L 234.812 396 236.307 391.750 C 237.130 389.413, 242.306 374.675, 247.810 359 C 253.314 343.325, 265.100 309.800, 274.002 284.500 C 282.903 259.200, 292.915 230.625, 296.249 221 C 299.584 211.375, 302.682 203.083, 303.133 202.574 C 303.592 202.055, 305.454 204.915, 307.365 209.074 C 309.242 213.158, 316.903 229.048, 324.389 244.386 C 331.875 259.723, 338 272.384, 338 272.522 C 338 272.659, 344.750 286.600, 353 303.500 C 361.250 320.400, 368 334.350, 368 334.500 C 368 334.650, 374.736 348.571, 382.969 365.437 L 397.938 396.102 403.654 395.801 L 409.369 395.500 415.146 379 C 418.323 369.925, 422.482 358, 424.387 352.500 C 426.293 347, 434.224 324.275, 442.012 302 C 449.800 279.725, 459.776 251.150, 464.181 238.500 C 478.182 198.289, 483.068 184.286, 500.901 133.250 C 504.697 122.388, 512.737 99.325, 518.768 82 C 532.399 42.841, 535.125 36.276, 540.095 30.630 C 547.327 22.414, 554.484 19.454, 569.750 18.365 L 579 17.705 579 14.352 L 579 11 536.059 11 C 506.971 11, 492.907 11.341, 492.465 12.057 C 492.106 12.638, 492.071 14.146, 492.388 15.408 C 492.916 17.513, 493.684 17.757, 501.732 18.365 C 519.495 19.709, 526.026 24.105, 525.978 34.684 C 525.953 40.104, 522.270 51.530, 502.021 109 C 494.754 129.625, 485.744 155.275, 482 166 C 478.256 176.725, 469.259 202.375, 462.007 223 C 441.322 281.828, 435.060 299.728, 431.310 310.750 C 429.392 316.388, 427.396 321, 426.874 321 C 426.352 321, 423.521 315.938, 420.583 309.750 C 417.645 303.563, 411.310 290.400, 406.505 280.500 C 398.257 263.505, 394.316 255.347, 378.734 223 C 375.158 215.575, 368.418 201.625, 363.757 192 C 338.315 139.460, 331 123.968, 331 122.629 C 331 120.205, 357.840 44.933, 360.641 39.500 C 368.241 24.764, 376.019 20.033, 395.500 18.300 L 404.500 17.500 404.814 14.246 L 405.127 10.991 293.814 11.246 L 182.500 11.500 182.500 14.500 L 182.500 17.500 191.319 18.290 C 211.717 20.117, 218.326 25.660, 230.988 51.564 C 239.886 69.766, 287.395 167.585, 294.623 182.584 L 299 191.668 289.420 219.084 C 284.151 234.163, 276.763 255.275, 273.002 266 C 269.241 276.725, 263.291 293.712, 259.780 303.748 C 254.820 317.926, 253.129 321.729, 252.198 320.798 C 251.539 320.139, 251 319.291, 251 318.914 C 251 318.537, 244.250 304.400, 236 287.500 C 227.750 270.600, 221 256.650, 221 256.500 C 221 256.350, 214.250 242.400, 206 225.500 C 197.750 208.600, 191 194.650, 191 194.500 C 191 194.350, 184.250 180.400, 176 163.500 C 167.750 146.600, 161 132.666, 161 132.536 C 161 132.406, 155.546 121.095, 148.879 107.400 C 115.948 39.751, 115 37.627, 115 31.497 C 115 22.586, 120.807 19.465, 140.294 17.902 C 155.158 16.710, 155 16.758, 155 13.441 L 155 11 82.059 11 C 31.895 11, 8.914 11.330, 8.465 12.057 M 606.667 13.667 C 606.300 14.033, 606 17.393, 606 21.133 L 606 27.933 612.363 32.750 C 633.991 49.122, 644.077 77.292, 640.889 112.420 C 637.124 153.909, 616.246 176.780, 574.975 184.625 C 569 185.761, 558.387 186.374, 539 186.701 C 509.718 187.196, 509 187.327, 509 192.191 C 509 193.835, 510.086 194, 520.916 194 L 532.832 194 535.748 197.750 C 537.352 199.813, 544.061 209.375, 550.658 219 C 596.645 286.101, 626.434 329.057, 633.526 338.500 C 651.037 361.813, 668.230 374.968, 689.205 381.101 C 695.767 383.020, 699.689 383.285, 728.250 383.737 L 760 384.239 760 380.721 L 760 377.203 752.750 376.479 C 738.010 375.008, 725.794 368.947, 715.796 358.144 C 712.883 354.997, 700.292 337.589, 687.815 319.461 C 659.319 278.057, 620.046 221.178, 617.794 218.051 L 616.088 215.681 608.794 219.348 C 596.565 225.496, 587.625 226.159, 574.391 221.898 C 563.863 218.508, 554.620 211.553, 546.334 200.785 C 543.322 196.870, 542.299 194.850, 543.186 194.568 C 543.909 194.337, 555.750 193.907, 569.500 193.611 C 599.081 192.975, 612.956 191.190, 632.400 185.518 C 677.212 172.446, 700.387 139.918, 697.603 94 C 694.989 50.880, 669.661 25.357, 619.140 14.931 C 608.848 12.808, 607.647 12.686, 606.667 13.667 M 305.500 18.699 C 289.446 20.833, 285.648 27.841, 292.330 43 C 302.085 65.130, 325.506 112.894, 326.241 112.159 C 327.063 111.337, 341.458 71.391, 348.556 50.235 C 355.521 29.475, 352.070 21.872, 334.364 18.972 C 328.695 18.044, 311.641 17.882, 305.500 18.699 M 486.145 256.436 C 485.616 258.354, 483.155 265.678, 480.676 272.711 C 478.197 279.745, 469.361 305.075, 461.039 329 C 452.718 352.925, 445.255 374.197, 444.455 376.270 C 441.213 384.672, 437.817 384, 483.500 384 L 524 384 524 380.647 L 524 377.293 516.490 376.659 C 504.469 375.643, 500.115 374.171, 495.556 369.582 C 489.057 363.041, 489 362.482, 489 305.045 C 489 256.009, 488.520 247.835, 486.145 256.436 M 222.522 458.964 C 222.225 459.446, 222.827 463.589, 223.862 468.170 C 224.896 472.752, 226.316 479.425, 227.017 483 C 229.041 493.326, 229.375 493.248, 233.890 481.394 C 240.200 464.829, 239.460 465.766, 241.870 471.286 C 243.019 473.918, 245.160 479.454, 246.628 483.588 C 248.391 488.554, 249.632 490.768, 250.287 490.113 C 252.146 488.254, 258.017 459.628, 256.705 458.818 C 254.836 457.663, 254.317 458.847, 252.038 469.468 C 250.861 474.950, 249.753 479.580, 249.575 479.758 C 249.398 479.936, 247.344 475.332, 245.011 469.528 C 240.561 458.456, 239.378 456.700, 238.380 459.687 C 236.088 466.541, 231.677 477.655, 230.945 478.417 C 229.868 479.540, 229.655 478.893, 227.443 467.801 C 225.869 459.905, 224.007 456.561, 222.522 458.964 M 283.830 459.966 C 277.956 463.166, 275.500 467.451, 275.500 474.500 C 275.500 481.953, 278.272 486.348, 284.792 489.232 C 302.116 496.895, 315.728 473.047, 300.612 461.518 C 295.929 457.945, 288.757 457.282, 283.830 459.966 M 324.322 458.801 C 322.981 459.630, 335.831 490.314, 337.492 490.248 C 339.132 490.182, 351.896 459.606, 350.624 458.792 C 348.885 457.679, 347.914 459.243, 342.895 471.252 C 340.309 477.438, 337.898 482.500, 337.537 482.500 C 337.176 482.500, 334.687 477.377, 332.006 471.116 C 326.715 458.759, 326.068 457.722, 324.322 458.801 M 370.494 459.154 C 370.192 459.943, 370.069 467.207, 370.222 475.296 C 370.556 492.978, 372.266 495.607, 373 479.566 C 373.583 466.817, 373.042 466.748, 382.948 480.832 C 386.495 485.875, 389.769 490, 390.224 490 C 390.679 490, 390.927 483.024, 390.775 474.498 C 390.450 456.189, 388.752 453.032, 388 469.337 L 387.500 480.173 385.402 477.837 C 384.248 476.551, 380.546 471.500, 377.174 466.610 C 373.225 460.883, 370.849 458.231, 370.494 459.154 M 438.493 459.159 C 437.514 461.710, 438.437 490.004, 439.500 490.022 C 440.050 490.031, 440.725 487.446, 441 484.278 C 441.697 476.247, 443.467 476.282, 449.888 484.452 C 452.718 488.053, 455.450 491, 455.958 491 C 458.340 491, 457.815 488.611, 454.562 484.641 C 450.897 480.168, 449.978 477, 452.345 477 C 454.254 477, 456.912 473.793, 457.922 470.270 C 458.947 466.698, 457.109 462.174, 453.792 460.102 C 450.502 458.047, 439.187 457.350, 438.493 459.159 M 476.598 458.736 C 475.326 460.007, 476 481.064, 477.421 484.466 C 480.730 492.386, 493.264 493.172, 498.439 485.783 C 500.620 482.670, 500.747 459, 498.584 459 C 497.459 459, 497.099 461.485, 496.834 471.091 C 496.450 484.992, 495.321 487, 487.889 487 C 481.004 487, 480 484.978, 480 471.107 C 480 461.826, 479.692 459.096, 478.598 458.676 C 477.827 458.380, 476.927 458.407, 476.598 458.736 M 528.450 459.407 C 516.018 464.822, 515.987 483.457, 528.401 489.095 C 536.011 492.551, 543.935 490.188, 548.762 483.025 C 552.670 477.225, 551.642 475.545, 544 475.242 C 540.425 475.100, 536.880 475.387, 536.122 475.880 C 533.558 477.547, 536.090 479, 541.559 479 C 547.944 479, 548.224 479.719, 543.465 483.896 C 531.669 494.254, 515.482 478.088, 525.604 466.059 C 530.678 460.029, 538.905 460.212, 544.991 466.490 C 550.366 472.036, 552.375 469.976, 547.381 464.041 C 542.463 458.196, 535.271 456.436, 528.450 459.407 M 574.339 459.875 C 570.808 462.095, 569.520 464.952, 570.426 468.560 C 571.183 471.578, 574.548 473.816, 582.287 476.448 C 589.733 478.980, 591.333 481.758, 587.534 485.557 C 584.239 488.852, 579.138 488.828, 575.182 485.500 C 571.054 482.026, 568.108 482.732, 570.765 486.558 C 576.186 494.364, 593 491.341, 593 482.560 C 593 477.797, 590.476 475.371, 582.575 472.536 C 575.519 470.004, 574.042 468.838, 574.015 465.773 C 573.976 461.343, 583.801 459.646, 587.022 463.526 C 588.551 465.369, 591 465.448, 591 463.655 C 591 458.915, 579.881 456.392, 574.339 459.875 M 282.479 465.321 C 278.361 469.439, 277.272 474.322, 279.359 479.316 C 284.128 490.731, 301.267 488.756, 303.561 476.528 C 305.761 464.800, 290.900 456.900, 282.479 465.321 M 441.667 462.667 C 441.300 463.033, 441 465.685, 441 468.558 C 441 473.241, 441.249 473.846, 443.402 474.386 C 451.568 476.436, 458.228 469.228, 453 464 C 451.028 462.028, 443.223 461.110, 441.667 462.667" stroke="none" fill="#ffffff" fill-rule="evenodd"/>
</svg>